<svg width="28" height="27" viewBox="0 0 28 27" fill="none" xmlns="http://www.w3.org/2000/svg">
<path d="M27.3507 15.7352L25.8195 8.34913C25.806 8.28352 25.7868 8.21924 25.7621 8.15708C25.5445 7.38885 25.2534 7.2225 24.861 6.89925C24.4978 6.62063 24.3416 6.51514 24.3416 6.51514C24.3416 6.51514 23.3484 8.83874 23.0774 9.0592C20.4208 11.2232 15.97 14.595 14.882 15.2036L14.8619 15.2145C14.5044 15.4354 14.0997 15.5662 13.6818 15.5959V26.7121C14.6108 26.6875 15.5181 26.4221 16.3171 25.9412C17.5186 25.2649 20.7145 22.6654 24.4605 19.5844L25.9289 18.378C26.9048 17.5813 27.3734 16.7901 27.3627 15.9556C27.3657 15.8819 27.3616 15.8081 27.3507 15.7352Z" fill="#56189E"/>
<path d="M12.6995 15.3518L4.03101 8.98995C3.9587 8.93017 3.89432 8.86147 3.8394 8.78551C3.82379 8.36041 3.57925 7.97679 3.19979 7.78213L3.25511 6.51514C3.25511 6.51514 3.0743 6.6335 2.66138 6.88232C2.14187 7.19302 1.7519 7.42033 1.48472 8.64294L1.28366 9.64362L0.0233354 15.9302C0.00579341 16.0187 -0.00189959 16.1089 0.000395845 16.1992C0.0300823 17.3357 1.00839 18.132 1.23239 18.2987L11.118 25.8792C11.857 26.4312 12.7584 26.7239 13.6818 26.7117V15.6491C13.3292 15.6706 12.9806 15.5651 12.6995 15.3518Z" fill="#3A1B9B"/>
<path d="M24.908 7.16682C24.8915 7.15501 24.8756 7.14229 24.8604 7.1287C24.5615 6.87766 18.6615 2.85049 15.1712 0.472832C14.2241 -0.17689 12.9659 -0.155222 12.042 0.52672L11.6148 0.847421C10.8742 1.40076 9.49868 2.42464 7.84017 3.59836C5.9383 4.94557 4.18853 6.11797 2.63186 7.04721C1.97057 7.44152 1.35954 8.50745 3.02863 9.80735C3.20453 9.93878 11.9851 16.412 11.9851 16.412C12.9929 17.1493 14.1859 17.0836 15.3696 16.4014C16.5216 15.7692 20.6004 12.7344 23.1728 10.709L23.8262 10.1925C23.887 10.1438 23.9426 10.0965 23.9955 10.0492C25.0945 9.14623 26.0164 7.92783 24.908 7.16682Z" fill="#8524E2"/>
<path d="M9.04787 9.61521C9.35816 9.86982 9.73042 10.0419 10.1287 10.1148C10.512 10.1789 10.9045 10.1697 11.2843 10.0878C11.6781 10.005 12.0635 9.88763 12.4357 9.73707C12.7031 9.63011 12.9733 9.51231 13.2671 9.3769C13.292 9.36607 13.4057 9.31056 13.4209 9.32681L14.8633 10.41C14.9645 10.4831 14.9686 10.5183 14.7677 10.5969C14.593 10.6597 14.4079 10.69 14.2218 10.6862H14.2079C13.7724 10.6801 13.3504 10.5378 13.0038 10.28C12.922 10.2191 12.8086 10.2191 12.7267 10.28L11.3771 11.3037C11.3208 11.3459 11.2884 11.4117 11.2898 11.481C11.2908 11.5525 11.3262 11.6192 11.3854 11.6611C11.8494 11.9989 12.3881 12.2252 12.9581 12.3219C13.1814 12.3598 13.4076 12.3788 13.6343 12.3788C14.0733 12.3764 14.5094 12.3103 14.9285 12.1824C15.3788 12.0474 15.8082 11.8529 16.2046 11.6043C16.2307 11.586 16.2658 11.586 16.2919 11.6043L16.9847 12.1215C17.0669 12.1815 17.1797 12.1815 17.2618 12.1215L17.9145 11.6178C17.971 11.5752 18.0034 11.5088 18.0018 11.4391C18.0005 11.3702 17.9667 11.3057 17.9103 11.2644L17.3187 10.8311C17.3019 10.8182 17.2914 10.7991 17.2896 10.7783C17.2871 10.7558 17.2952 10.7333 17.3117 10.7174C17.5826 10.4505 17.8106 10.1451 17.9879 9.81154C18.2113 9.4176 18.2909 8.96113 18.2138 8.5171C18.1187 8.09557 17.8573 7.72772 17.4863 7.49347C17.1438 7.24648 16.7504 7.07508 16.3335 6.99113C15.9589 6.92274 15.5746 6.92274 15.2 6.99113C14.8267 7.05843 14.4613 7.16277 14.1096 7.30255C13.7922 7.42847 13.2408 7.67761 13.1701 7.70875C13.0994 7.7399 13.0135 7.76427 12.9733 7.73584L11.7055 6.80698C11.7566 6.78296 11.8094 6.7626 11.8635 6.74605C12.1043 6.67227 12.3569 6.64199 12.6089 6.65668C12.8193 6.66874 13.0237 6.73004 13.2047 6.83541C13.2839 6.88282 13.3845 6.87908 13.4597 6.82594L14.6624 5.96072C14.725 5.91555 14.7598 5.84239 14.7547 5.76653C14.7497 5.69068 14.7055 5.62253 14.6375 5.58565C14.2379 5.36847 13.7929 5.24299 13.3364 5.21872C12.7738 5.18898 12.2103 5.25963 11.6736 5.42723C11.3118 5.53747 10.9622 5.68309 10.6303 5.86187C10.6053 5.87737 10.5734 5.87737 10.5485 5.86187L9.96931 5.43671C9.88919 5.38128 9.782 5.38128 9.70188 5.43671L9.09221 5.84292C9.03171 5.88277 8.99497 5.94901 8.99383 6.02029C8.99139 6.09166 9.02443 6.15976 9.08251 6.20309L9.5079 6.52264C9.52611 6.53569 9.53732 6.5561 9.53838 6.57815C9.53832 6.60136 9.52826 6.62348 9.51067 6.63908C9.25193 6.85764 9.02532 7.11007 8.83726 7.38921C8.58172 7.7426 8.4531 8.16871 8.47145 8.60105C8.50916 9.00326 8.71838 9.37137 9.04787 9.61521ZM10.5901 7.74125C10.6209 7.66273 10.6614 7.58817 10.7106 7.51919C10.791 7.40545 10.8062 7.40275 10.8797 7.45691L11.808 8.15287C11.8939 8.22057 11.9466 8.24765 11.7291 8.32754C11.5995 8.37125 11.4651 8.39944 11.3286 8.41149C11.1326 8.44308 10.932 8.39407 10.7744 8.27609C10.5882 8.1652 10.5104 7.93961 10.5901 7.74125ZM15.8942 8.77166C16.1353 8.94497 16.224 9.14401 16.1714 9.38097C16.1395 9.51436 16.0769 9.63891 15.9885 9.7452C15.9178 9.82915 15.8776 9.85217 15.8083 9.80613L14.6458 8.95445C14.5072 8.84071 14.5072 8.84071 14.7442 8.73781C14.924 8.67836 15.1098 8.63796 15.2984 8.6173C15.5098 8.59443 15.7222 8.64948 15.8942 8.77166Z" fill="white"/>
</svg>
