<svg width="21" height="26" viewBox="0 0 21 26" fill="none" xmlns="http://www.w3.org/2000/svg">
<path fill-rule="evenodd" clip-rule="evenodd" d="M14.8182 1H2.72727C1.77333 1 1 2.0188 1 3.27556V19.2044C1 20.4612 1.77333 21.48 2.72727 21.48H14.8182C15.7722 21.48 16.5455 20.4612 16.5455 19.2044V3.27556C16.5455 2.0188 15.7722 1 14.8182 1Z" stroke="white" stroke-width="1.72727" stroke-linecap="round" stroke-linejoin="round"/>
<path d="M12.4545 5.39999H13.0909" stroke="white" stroke-width="1.72727" stroke-linecap="round" stroke-linejoin="round"/>
<path d="M4.45453 5.39999H9.13524" stroke="white" stroke-width="1.72727" stroke-linecap="round" stroke-linejoin="round"/>
<path d="M10 9.5H12.6364" stroke="white" stroke-width="1.72727" stroke-linecap="round" stroke-linejoin="round"/>
<path d="M6.18182 9.5H6.81819" stroke="white" stroke-width="1.72727" stroke-linecap="round" stroke-linejoin="round"/>
<path d="M6 13.44H11.1818" stroke="white" stroke-width="1.72727" stroke-linecap="round" stroke-linejoin="round"/>
<path d="M4.5 17.5H10.5" stroke="white" stroke-width="1.72727" stroke-linecap="round" stroke-linejoin="round"/>
<path d="M16.5454 5.51999H18.2727C19.2267 5.51999 20 6.29332 20 7.24726V22.4091C20 23.84 18.84 25 17.4091 25H6.1818C5.22785 25 4.45453 24.2267 4.45453 23.2727V21.2895" stroke="white" stroke-width="1.72727" stroke-linejoin="round"/>
</svg>
